<?xml version="1.0" standalone="no"?>
<!DOCTYPE svg PUBLIC "-//W3C//DTD SVG 20010904//EN"
 "http://www.w3.org/TR/2001/REC-SVG-20010904/DTD/svg10.dtd">
<svg version="1.0" xmlns="http://www.w3.org/2000/svg"
 width="408.000000pt" height="123.000000pt" viewBox="0 0 408.000000 123.000000"
 preserveAspectRatio="xMidYMid meet">

<g transform="translate(0.000000,123.000000) scale(0.100000,-0.100000)"
fill="#000000" stroke="none">
<path d="M0 615 l0 -615 661 0 661 0 -6 538 c-3 295 -5 572 -6 615 l0 77 -655
0 -655 0 0 -615z m1300 420 l0 -185 -284 0 c-156 0 -291 -3 -300 -6 -9 -3 -16
-17 -16 -29 0 -14 -7 -26 -17 -29 -10 -3 2 -3 27 0 25 3 47 9 48 14 2 6 111
10 272 10 l268 0 7 -86 c4 -47 5 -124 2 -172 -4 -48 -7 -122 -7 -165 0 -76 -1
-78 -23 -72 -12 4 -27 13 -33 21 -6 8 -24 13 -40 13 l-29 -1 30 -9 c21 -6 7
-7 -45 -4 -60 3 -67 2 -35 -5 22 -5 56 -9 76 -9 53 -1 100 -20 98 -40 -1 -9 0
-18 1 -21 5 -14 10 -178 5 -197 -3 -14 -10 -20 -20 -17 -11 4 -15 29 -18 97
l-3 92 -2 -97 -2 -97 -82 -4 -83 -4 95 0 c133 -2 126 -1 111 -15 -11 -11 -14
-10 -18 0 -3 6 -10 9 -16 5 -15 -10 -277 -11 -277 -1 0 4 17 10 38 13 61 11
60 12 -6 16 -44 3 -61 1 -58 -8 3 -6 -3 -13 -12 -15 -14 -4 -17 2 -14 41 2 34
0 42 -7 31 -6 -8 -8 -26 -5 -40 5 -22 4 -23 -6 -7 -6 9 -9 26 -5 36 3 10 -1
31 -10 47 -8 16 -15 40 -16 54 l-1 25 -7 -25 c-7 -23 -11 -25 -64 -22 -83 5
-110 15 -118 43 -6 20 -7 18 -8 -14 -1 -30 -6 -39 -25 -47 -33 -12 -46 -39
-46 -94 l0 -46 -161 0 -161 0 4 65 c3 62 2 64 -22 67 -23 3 -25 7 -28 67 -2
46 -8 68 -20 78 -16 12 -15 12 3 7 l20 -7 -20 16 -20 16 20 1 20 1 -20 9 c-17
7 -17 9 -2 9 10 1 17 9 17 19 0 11 9 27 20 37 11 10 20 25 20 33 0 9 6 12 18
8 10 -4 8 1 -7 13 -14 10 -30 18 -35 17 -6 -2 -8 -1 -4 1 4 3 2 13 -4 23 -10
15 -8 23 7 42 11 13 13 17 4 10 -14 -11 -15 3 -11 143 l5 155 -127 0 -126 0 0
190 0 190 645 0 645 0 0 -185z m-1110 -241 l32 -7 -7 -381 c-4 -210 -9 -383
-10 -386 -2 -3 -46 -4 -99 -2 l-96 3 0 384 0 384 27 4 c47 7 119 7 153 1z
m675 -763 c64 -6 65 -16 2 -20 -42 -3 -97 15 -97 31 0 6 7 7 18 2 9 -4 44 -10
77 -13z"/>
<path d="M798 1155 c-9 -19 -9 -28 0 -37 18 -18 46 13 37 41 -9 28 -23 27 -37
-4z m32 -10 c0 -15 -18 -30 -27 -22 -2 3 -2 15 2 26 7 23 25 19 25 -4z"/>
<path d="M854 1166 c-3 -8 -4 -25 -1 -38 3 -17 5 -15 6 10 0 18 5 31 11 27 5
-3 7 -12 4 -19 -3 -7 3 -19 12 -27 16 -13 16 -12 4 11 -7 14 -13 26 -12 28 1
1 2 7 2 12 0 15 -20 12 -26 -4z"/>
<path d="M971 1158 c17 -33 23 -36 17 -11 -3 12 -1 24 6 27 6 2 1 5 -12 5 -20
1 -22 -1 -11 -21z"/>
<path d="M1064 1169 c-3 -6 -1 -16 5 -22 9 -9 11 -8 6 5 -4 11 0 18 12 21 15
4 16 5 1 6 -9 0 -20 -4 -24 -10z"/>
<path d="M150 1160 c0 -6 -8 -10 -17 -8 -11 2 -19 -5 -21 -17 -2 -15 -1 -17 6
-6 6 7 15 10 21 7 6 -4 11 -2 11 4 0 6 4 8 10 5 6 -3 7 1 4 9 -7 18 -14 21
-14 6z"/>
<path d="M280 1150 c0 -15 5 -20 18 -18 9 2 17 10 17 18 0 8 -8 16 -17 18 -13
2 -18 -3 -18 -18z m30 0 c0 -5 -4 -10 -10 -10 -5 0 -10 5 -10 10 0 6 5 10 10
10 6 0 10 -4 10 -10z"/>
<path d="M331 1144 c-14 -32 -12 -37 12 -19 14 10 16 18 10 30 -8 14 -11 12
-22 -11z"/>
<path d="M447 1163 c-12 -11 -8 -23 8 -23 21 0 19 -18 -2 -23 -14 -4 -12 -5 5
-6 25 -1 31 26 7 35 -8 4 -12 10 -9 15 6 11 0 12 -9 2z"/>
<path d="M565 1149 c-9 -28 9 -46 30 -29 12 10 15 10 15 -1 0 -11 3 -11 11 1
8 11 12 12 16 3 7 -18 48 -16 63 2 10 12 10 18 0 30 -14 16 -40 20 -40 6 0 -5
8 -8 18 -7 9 0 17 -6 17 -14 0 -21 -43 -26 -51 -6 -3 9 -10 13 -15 10 -5 -3
-9 -1 -9 5 0 5 6 12 13 14 7 3 5 6 -5 6 -10 1 -18 -4 -18 -11 0 -9 -3 -9 -12
0 -17 17 -26 15 -33 -9z m27 -21 c-6 -6 -15 -9 -18 -5 -4 3 -4 14 0 23 5 13 9
15 18 6 9 -9 9 -15 0 -24z"/>
<path d="M1010 1145 c0 -23 3 -27 10 -15 9 13 11 13 20 0 7 -12 10 -8 10 15 0
23 -3 27 -10 15 -9 -13 -11 -13 -20 0 -7 12 -10 8 -10 -15z"/>
<path d="M189 1145 c5 -5 10 -17 13 -25 3 -10 6 -6 10 10 3 20 0 26 -13 26
-11 0 -15 -4 -10 -11z"/>
<path d="M491 1138 c-1 -25 2 -28 32 -28 22 0 28 3 18 9 -8 5 -20 7 -27 4 -7
-3 -14 5 -17 19 -4 21 -4 20 -6 -4z"/>
<path d="M403 1139 c9 -6 14 -15 11 -21 -4 -7 -2 -8 5 -4 14 9 -3 36 -23 36
-6 0 -3 -5 7 -11z"/>
<path d="M751 1128 c0 -16 2 -18 6 -8 3 8 11 18 17 22 7 5 4 8 -6 8 -12 0 -18
-7 -17 -22z"/>
<path d="M1078 1113 c7 -3 16 -2 19 1 4 3 -2 6 -13 5 -11 0 -14 -3 -6 -6z"/>
<path d="M947 1073 c-4 -3 -7 -20 -7 -37 0 -24 3 -28 10 -16 9 13 11 13 21 0
9 -13 10 -12 5 3 -3 10 -6 21 -6 23 0 3 -4 2 -10 -1 -5 -3 -10 1 -10 10 0 10
5 13 12 9 7 -4 8 -3 4 4 -8 14 -10 14 -19 5z"/>
<path d="M215 1060 c-3 -5 -1 -10 4 -10 6 0 11 5 11 10 0 6 -2 10 -4 10 -3 0
-8 -4 -11 -10z"/>
<path d="M342 1058 c-15 -15 -16 -45 -2 -53 16 -10 41 16 38 38 -4 25 -20 31
-36 15z m26 -20 c-4 -27 -28 -36 -28 -10 0 20 8 32 22 32 5 0 8 -10 6 -22z"/>
<path d="M394 1059 c-4 -8 -3 -9 4 -5 7 4 12 2 12 -3 0 -6 -4 -11 -10 -11 -5
0 -10 -8 -9 -17 0 -12 2 -13 6 -5 3 9 9 10 18 2 9 -8 11 -4 7 15 -5 30 -18 40
-28 24z"/>
<path d="M460 1045 c-7 -14 -10 -28 -7 -32 4 -3 7 0 7 7 0 9 7 7 23 -6 l22
-19 -18 21 c-10 12 -15 28 -11 38 9 25 -1 19 -16 -9z"/>
<path d="M549 1061 c8 -5 12 -19 9 -35 -3 -15 -1 -26 6 -26 6 0 11 16 11 35 0
28 -4 35 -20 35 -15 0 -17 -2 -6 -9z"/>
<path d="M600 1055 c0 -8 7 -15 16 -15 9 0 14 -6 11 -12 -2 -7 -10 -12 -16
-10 -7 1 -10 -2 -6 -7 8 -14 35 -2 35 15 0 8 -7 17 -16 21 -13 5 -13 7 -2 14
10 7 9 9 -4 9 -10 0 -18 -7 -18 -15z"/>
<path d="M738 1063 c6 -2 18 -2 25 0 6 3 1 5 -13 5 -14 0 -19 -2 -12 -5z"/>
<path d="M883 1055 c-3 -9 -3 -18 -1 -21 3 -3 8 4 11 16 6 23 -1 27 -10 5z"/>
<path d="M1010 1059 c0 -5 -4 -7 -10 -4 -5 3 -10 0 -10 -7 0 -7 9 -19 21 -26
18 -12 19 -11 11 5 -5 10 -7 24 -5 31 3 6 2 12 -1 12 -3 0 -6 -5 -6 -11z"/>
<path d="M1156 1054 c-5 -14 -4 -15 9 -4 17 14 19 20 6 20 -5 0 -12 -7 -15
-16z"/>
<path d="M110 1055 c0 -5 9 -21 20 -35 11 -14 20 -20 20 -15 0 6 -9 21 -20 35
-11 14 -20 21 -20 15z"/>
<path d="M254 1045 c-10 -25 3 -42 30 -42 15 0 29 3 32 8 3 5 -2 6 -10 3 -9
-4 -16 -1 -16 6 0 9 -4 9 -17 -1 -15 -13 -16 -11 -11 14 6 29 1 36 -8 12z"/>
<path d="M651 1034 c1 -18 3 -22 6 -11 5 18 6 18 24 1 18 -16 19 -16 18 7 0
13 -3 18 -6 11 -4 -10 -9 -9 -24 4 -18 16 -19 16 -18 -12z"/>
<path d="M1109 1037 c30 -33 31 -33 30 -4 0 12 -3 16 -6 9 -4 -10 -10 -9 -27
5 -17 14 -16 12 3 -10z"/>
<path d="M170 1020 c0 -14 6 -20 23 -19 18 1 18 2 4 6 -11 3 -16 11 -13 19 3
8 1 14 -4 14 -6 0 -10 -9 -10 -20z"/>
<path d="M221 1024 c0 -11 3 -14 6 -6 3 7 2 16 -1 19 -3 4 -6 -2 -5 -13z"/>
<path d="M834 1029 c-7 -11 12 -29 31 -29 6 1 2 5 -8 11 -9 6 -15 14 -12 20 4
5 4 9 1 9 -3 0 -8 -5 -12 -11z"/>
<path d="M1050 1025 c0 -8 4 -15 10 -15 5 0 7 7 4 15 -4 8 -8 15 -10 15 -2 0
-4 -7 -4 -15z"/>
<path d="M1186 1025 c4 -8 8 -15 10 -15 2 0 4 7 4 15 0 8 -4 15 -10 15 -5 0
-7 -7 -4 -15z"/>
<path d="M915 1020 c-4 -6 -11 -7 -17 -4 -7 4 -8 2 -4 -4 7 -12 36 -5 36 9 0
12 -7 11 -15 -1z"/>
<path d="M1150 1021 c0 -5 7 -12 16 -15 14 -5 15 -4 4 9 -14 17 -20 19 -20 6z"/>
<path d="M511 814 c0 -11 3 -14 6 -6 3 7 2 16 -1 19 -3 4 -6 -2 -5 -13z"/>
<path d="M853 793 c9 -2 25 -2 35 0 9 3 1 5 -18 5 -19 0 -27 -2 -17 -5z"/>
<path d="M1128 793 c7 -3 16 -2 19 1 4 3 -2 6 -13 5 -11 0 -14 -3 -6 -6z"/>
<path d="M496 775 c-9 -26 -7 -32 5 -12 6 10 9 21 6 23 -2 3 -7 -2 -11 -11z"/>
<path d="M635 770 c-3 -6 1 -7 9 -4 18 7 21 14 7 14 -6 0 -13 -4 -16 -10z"/>
<path d="M681 728 c1 -16 3 -18 6 -6 2 9 12 19 21 21 12 3 10 5 -5 6 -18 1
-23 -4 -22 -21z"/>
<path d="M876 741 c-4 -5 3 -7 14 -4 23 6 26 13 6 13 -8 0 -17 -4 -20 -9z"/>
<path d="M978 743 c6 -2 18 -2 25 0 6 3 1 5 -13 5 -14 0 -19 -2 -12 -5z"/>
<path d="M1070 744 c0 -6 7 -19 16 -30 14 -18 14 -18 3 6 -14 31 -19 36 -19
24z"/>
<path d="M981 714 c0 -11 3 -14 6 -6 3 7 2 16 -1 19 -3 4 -6 -2 -5 -13z"/>
<path d="M623 685 c0 -22 2 -30 4 -17 2 12 2 30 0 40 -3 9 -5 -1 -4 -23z"/>
<path d="M735 690 c-3 -5 -1 -10 4 -10 6 0 11 5 11 10 0 6 -2 10 -4 10 -3 0
-8 -4 -11 -10z"/>
<path d="M880 686 c7 -7 13 -7 20 0 6 6 3 10 -10 10 -13 0 -16 -4 -10 -10z"/>
<path d="M369 673 c-13 -16 -12 -17 4 -4 16 13 21 21 13 21 -2 0 -10 -8 -17
-17z"/>
<path d="M818 683 c7 -3 16 -2 19 1 4 3 -2 6 -13 5 -11 0 -14 -3 -6 -6z"/>
<path d="M460 670 c0 -6 7 -10 15 -10 8 0 15 2 15 4 0 2 -7 6 -15 10 -8 3 -15
1 -15 -4z"/>
<path d="M340 635 c-7 -8 -17 -12 -23 -8 -6 4 -7 1 -2 -7 6 -10 4 -12 -8 -7
-9 3 -19 1 -23 -5 -4 -6 -3 -8 3 -5 5 3 21 0 36 -8 15 -8 27 -10 27 -5 0 4 -6
10 -12 13 -9 3 -8 10 6 26 11 11 17 21 14 21 -3 0 -11 -7 -18 -15z"/>
<path d="M684 608 c-16 -31 -16 -32 0 -19 14 12 22 12 36 3 17 -10 17 -9 3 19
-8 16 -16 29 -18 29 -3 0 -12 -15 -21 -32z"/>
<path d="M830 631 c0 -6 4 -12 8 -15 5 -3 9 1 9 9 0 8 -4 15 -9 15 -4 0 -8 -4
-8 -9z"/>
<path d="M937 633 c-4 -3 -7 -18 -7 -32 0 -19 3 -22 9 -12 5 8 7 21 3 29 -4
11 -1 14 12 9 10 -4 15 -3 11 3 -7 12 -19 13 -28 3z"/>
<path d="M1002 610 c0 -19 2 -27 5 -17 2 9 2 25 0 35 -3 9 -5 1 -5 -18z"/>
<path d="M1058 633 c7 -3 16 -2 19 1 4 3 -2 6 -13 5 -11 0 -14 -3 -6 -6z"/>
<path d="M1101 631 c-10 -7 -7 -9 12 -8 14 1 23 5 20 10 -6 9 -15 9 -32 -2z"/>
<path d="M1278 633 c7 -3 16 -2 19 1 4 3 -2 6 -13 5 -11 0 -14 -3 -6 -6z"/>
<path d="M782 610 c0 -14 2 -19 5 -12 2 6 2 18 0 25 -3 6 -5 1 -5 -13z"/>
<path d="M461 597 c-13 -21 -12 -21 5 -5 10 10 16 20 13 22 -3 3 -11 -5 -18
-17z"/>
<path d="M811 604 c0 -11 3 -14 6 -6 3 7 2 16 -1 19 -3 4 -6 -2 -5 -13z"/>
<path d="M1050 600 c0 -11 2 -20 4 -20 2 0 6 9 9 20 3 11 1 20 -4 20 -5 0 -9
-9 -9 -20z"/>
<path d="M368 603 c23 -9 12 -33 -23 -47 -19 -8 -35 -17 -35 -20 0 -8 52 15
69 30 16 14 8 44 -11 43 -10 0 -10 -2 0 -6z"/>
<path d="M1090 601 c0 -6 4 -13 10 -16 6 -3 7 1 4 9 -7 18 -14 21 -14 7z"/>
<path d="M1180 601 c0 -8 -7 -11 -15 -7 -8 3 -15 1 -15 -4 0 -6 6 -10 14 -10
17 0 31 18 22 27 -3 4 -6 1 -6 -6z"/>
<path d="M633 540 c0 -36 2 -50 4 -32 2 17 2 47 0 65 -2 17 -4 3 -4 -33z"/>
<path d="M1125 589 c-4 -6 -5 -12 -2 -15 2 -3 7 2 10 11 7 17 1 20 -8 4z"/>
<path d="M283 573 c0 -9 4 -10 14 -2 7 6 13 12 13 14 0 1 -6 2 -13 2 -8 0 -14
-6 -14 -14z"/>
<path d="M407 569 c4 -13 8 -18 11 -10 2 7 -1 18 -6 23 -8 8 -9 4 -5 -13z"/>
<path d="M1208 583 c7 -3 16 -2 19 1 4 3 -2 6 -13 5 -11 0 -14 -3 -6 -6z"/>
<path d="M401 530 c10 -7 8 -14 -6 -37 l-18 -28 23 20 c12 11 25 19 28 17 4
-2 8 1 10 7 2 6 -2 11 -10 11 -11 0 -11 2 1 9 9 6 5 9 -14 9 -17 0 -23 -3 -14
-8z"/>
<path d="M716 527 c3 -10 9 -15 12 -12 3 3 0 11 -7 18 -10 9 -11 8 -5 -6z"/>
<path d="M970 531 c0 -5 9 -7 20 -4 11 3 20 7 20 9 0 2 -9 4 -20 4 -11 0 -20
-4 -20 -9z"/>
<path d="M753 502 c-1 -21 0 -23 6 -9 6 17 8 17 20 3 16 -19 31 -21 31 -4 0 6
-3 8 -7 5 -3 -4 -16 2 -28 13 l-21 19 -1 -27z"/>
<path d="M821 503 c-1 -25 3 -33 17 -33 11 0 13 3 6 8 -7 4 -14 18 -17 32 -4
21 -4 20 -6 -7z"/>
<path d="M910 526 c0 -3 11 -17 25 -32 15 -16 25 -21 25 -13 -1 12 -50 57 -50
45z"/>
<path d="M360 511 c0 -9 -9 -12 -25 -9 -13 3 -22 1 -19 -3 7 -13 42 -11 49 2
4 6 4 13 1 16 -3 4 -6 1 -6 -6z"/>
<path d="M878 473 c7 -3 16 -2 19 1 4 3 -2 6 -13 5 -11 0 -14 -3 -6 -6z"/>
<path d="M983 473 c9 -2 23 -2 30 0 6 3 -1 5 -18 5 -16 0 -22 -2 -12 -5z"/>
<path d="M359 443 c-13 -16 -12 -17 4 -4 16 13 21 21 13 21 -2 0 -10 -8 -17
-17z"/>
<path d="M647 439 c7 -7 15 -10 18 -7 3 3 -2 9 -12 12 -14 6 -15 5 -6 -5z"/>
<path d="M1095 441 c-6 -6 -41 -12 -80 -14 l-70 -3 71 -2 c53 -1 75 2 84 13
14 17 10 21 -5 6z"/>
<path d="M703 423 c21 -6 22 -36 2 -57 -21 -20 -29 -70 -16 -93 6 -10 11 -13
11 -5 0 8 5 10 13 6 9 -6 9 -5 0 8 -7 8 -9 19 -5 23 4 5 0 5 -8 0 -12 -6 -13
-5 -3 5 10 11 15 11 28 0 12 -10 15 -10 15 3 0 15 40 27 93 27 29 0 30 -1 11
-15 -18 -14 -18 -14 4 -15 36 0 25 39 -18 61 -71 37 -71 43 0 50 55 5 49 6
-40 6 -58 0 -97 -1 -87 -4z"/>
<path d="M352 395 c0 -16 2 -22 5 -12 2 9 2 23 0 30 -3 6 -5 -1 -5 -18z"/>
<path d="M901 358 c-1 -10 3 -18 8 -18 5 0 15 8 22 18 13 15 12 16 -3 4 -13
-10 -17 -10 -21 0 -4 8 -6 7 -6 -4z"/>
<path d="M302 326 c7 -8 15 -12 17 -11 5 6 -10 25 -20 25 -5 0 -4 -6 3 -14z"/>
<path d="M1040 320 c14 -4 41 -8 60 -8 l35 0 -30 8 c-16 4 -43 8 -60 8 -29 0
-29 0 -5 -8z"/>
<path d="M770 316 c0 -9 30 -14 35 -6 4 6 -3 10 -14 10 -12 0 -21 -2 -21 -4z"/>
<path d="M946 305 c-3 -9 -5 -40 -4 -68 l1 -52 6 59 c4 38 11 61 20 64 8 3 11
1 8 -4 -3 -5 14 -10 36 -11 49 -3 33 11 -24 22 -29 5 -38 3 -43 -10z"/>
<path d="M843 284 c24 -29 22 -54 -5 -55 -18 -1 -19 -2 -5 -6 27 -7 47 15 46
51 -1 18 -3 23 -6 13 -5 -18 -5 -18 -26 0 -22 18 -22 18 -4 -3z"/>
<path d="M295 280 c3 -5 8 -10 11 -10 2 0 4 5 4 10 0 6 -5 10 -11 10 -5 0 -7
-4 -4 -10z"/>
<path d="M1083 283 c9 -2 23 -2 30 0 6 3 -1 5 -18 5 -16 0 -22 -2 -12 -5z"/>
<path d="M272 260 c9 -14 26 -26 39 -27 19 -1 20 -1 4 4 -11 2 -28 15 -39 26
l-18 22 14 -25z"/>
<path d="M330 263 c0 -15 2 -16 10 -3 6 10 10 0 12 -35 l3 -50 5 53 c4 45 3
52 -12 52 -11 0 -18 -7 -18 -17z"/>
<path d="M963 200 c0 -47 2 -66 4 -42 2 23 2 61 0 85 -2 23 -4 4 -4 -43z"/>
<path d="M1153 273 c9 -2 23 -2 30 0 6 3 -1 5 -18 5 -16 0 -22 -2 -12 -5z"/>
<path d="M1220 260 c14 -4 34 -8 45 -8 16 0 15 2 -5 8 -14 4 -34 8 -45 8 -16
0 -15 -2 5 -8z"/>
<path d="M329 153 c-13 -16 -12 -17 4 -4 16 13 21 21 13 21 -2 0 -10 -8 -17
-17z"/>
<path d="M1400 754 c0 -274 -4 -473 -9 -470 -5 3 -15 -2 -22 -12 -13 -15 -12
-16 3 -4 21 16 33 1 34 -43 0 -16 1 -74 2 -127 l2 -98 633 0 634 0 6 248 c4
136 7 412 7 615 l0 367 -645 0 -645 0 0 -476z m1275 34 c-2 -563 1 -518 -32
-519 l-28 -2 28 -4 27 -4 0 -122 0 -122 -70 3 -70 4 -2 86 -2 87 -3 -80 c-4
-101 -15 -127 -23 -55 l-7 55 -1 -53 -2 -53 -97 3 -98 3 -6 35 -6 35 -2 -37
-1 -37 -327 0 c-323 0 -328 1 -353 22 l-25 22 20 -23 19 -23 -95 3 -94 3 -6
200 c-4 110 -7 381 -8 603 l-1 402 633 0 633 0 -1 -432z"/>
<path d="M1505 1135 c0 -31 3 -35 25 -34 17 1 19 3 8 6 -12 3 -18 14 -18 34 0
16 -3 29 -7 29 -5 0 -8 -16 -8 -35z"/>
<path d="M1640 1156 c0 -9 5 -16 10 -16 6 0 10 4 10 9 0 6 -4 13 -10 16 -5 3
-10 -1 -10 -9z"/>
<path d="M1782 1145 c0 -16 2 -22 5 -12 2 9 2 23 0 30 -3 6 -5 -1 -5 -18z"/>
<path d="M1860 1149 c-16 -28 -5 -51 22 -47 27 4 37 28 11 28 -15 0 -16 -2 -3
-10 12 -8 11 -10 -7 -10 -27 0 -29 16 -6 42 9 10 11 18 5 18 -6 0 -16 -9 -22
-21z"/>
<path d="M1918 1165 c-12 -12 5 -65 21 -65 12 0 13 2 3 9 -8 4 -11 19 -8 34 4
25 -3 35 -16 22z"/>
<path d="M1968 1158 c5 -7 12 -22 14 -33 3 -14 6 -11 9 13 5 27 2 32 -14 32
-14 0 -17 -3 -9 -12z"/>
<path d="M2047 1163 c-4 -3 -7 -13 -7 -22 1 -13 2 -13 11 2 13 21 29 13 29
-15 0 -16 -5 -19 -21 -15 -16 4 -19 3 -11 -5 15 -15 42 -2 42 20 0 28 -28 51
-43 35z"/>
<path d="M2205 1160 c4 -6 11 -8 16 -5 14 9 11 15 -7 15 -8 0 -12 -5 -9 -10z"/>
<path d="M2308 1163 c6 -2 18 -2 25 0 6 3 1 5 -13 5 -14 0 -19 -2 -12 -5z"/>
<path d="M2100 1156 c0 -3 8 -15 17 -26 18 -20 33 -26 33 -12 -1 8 -50 46 -50
38z"/>
<path d="M2251 1135 c1 -18 3 -23 6 -12 5 18 5 18 18 0 7 -10 15 -16 18 -13 2
3 -6 16 -19 30 l-24 25 1 -30z"/>
<path d="M1690 1144 c0 -12 32 -44 43 -44 4 0 7 5 7 11 0 5 -4 8 -9 4 -5 -3
-17 5 -25 17 -9 12 -16 18 -16 12z"/>
<path d="M2310 1139 c0 -5 5 -7 10 -4 6 3 10 8 10 11 0 2 -4 4 -10 4 -5 0 -10
-5 -10 -11z"/>
<path d="M1630 1119 c0 -5 5 -7 10 -4 6 4 18 1 26 -6 12 -10 13 -9 8 5 -7 18
-44 22 -44 5z"/>
<path d="M1588 1108 c5 -5 16 -8 23 -6 8 3 3 7 -10 11 -17 4 -21 3 -13 -5z"/>
<path d="M2318 1113 c6 -2 18 -2 25 0 6 3 1 5 -13 5 -14 0 -19 -2 -12 -5z"/>
<path d="M2168 1103 c6 -2 18 -2 25 0 6 3 1 5 -13 5 -14 0 -19 -2 -12 -5z"/>
<path d="M1507 1063 c-11 -10 -8 -48 4 -60 13 -13 39 -6 39 9 0 6 -6 5 -15 -2
-12 -10 -16 -9 -21 4 -3 9 -4 25 -1 36 5 21 4 24 -6 13z"/>
<path d="M2056 1062 c-3 -5 -2 -18 1 -31 6 -22 6 -22 20 -1 14 20 10 40 -7 40
-5 0 -11 -4 -14 -8z m24 -12 c0 -5 -4 -10 -10 -10 -5 0 -10 5 -10 10 0 6 5 10
10 10 6 0 10 -4 10 -10z"/>
<path d="M2157 1063 c-12 -12 -7 -22 16 -33 20 -10 20 -10 5 3 -13 10 -15 16
-6 25 8 8 8 12 2 12 -6 0 -14 -3 -17 -7z"/>
<path d="M2387 1064 c-4 -4 -7 -19 -7 -33 0 -21 2 -23 10 -11 9 13 12 12 25
-4 8 -11 15 -15 15 -10 0 6 -3 14 -7 18 -4 4 -8 15 -8 23 0 18 -17 28 -28 17z
m23 -14 c0 -5 -4 -10 -10 -10 -5 0 -10 5 -10 10 0 6 5 10 10 10 6 0 10 -4 10
-10z"/>
<path d="M2440 1036 c0 -39 6 -43 36 -22 15 12 17 18 8 33 -6 10 -19 19 -28
21 -12 3 -16 -4 -16 -32z m38 2 c2 -9 -4 -18 -13 -21 -11 -5 -15 0 -15 19 0
28 23 29 28 2z"/>
<path d="M1526 1045 c-3 -9 0 -15 9 -15 9 0 12 6 9 15 -4 8 -7 15 -9 15 -2 0
-5 -7 -9 -15z"/>
<path d="M1568 1053 c7 -3 16 -2 19 1 4 3 -2 6 -13 5 -11 0 -14 -3 -6 -6z"/>
<path d="M1607 1053 c-4 -3 -7 -14 -7 -24 0 -9 -6 -19 -12 -22 -7 -2 3 -4 22
-5 19 0 40 4 47 9 7 6 17 8 23 4 15 -9 12 9 -6 31 -10 12 -14 14 -11 4 4 -18
-16 -40 -37 -40 -22 0 -20 37 2 43 14 4 14 5 1 6 -9 0 -19 -2 -22 -6z"/>
<path d="M1810 1039 c0 -11 -5 -17 -10 -14 -6 4 -9 1 -8 -7 2 -8 -5 -12 -17
-10 -16 2 -17 1 -5 -7 9 -6 19 -6 26 -1 6 6 14 7 17 3 4 -3 7 1 7 10 0 10 6
17 13 17 8 0 8 3 -2 9 -11 7 -10 10 5 14 16 4 16 5 -3 6 -17 1 -23 -5 -23 -20z"/>
<path d="M1905 1040 c-4 -12 -4 -24 -1 -27 3 -4 6 1 6 9 0 10 8 14 25 13 25
-3 34 8 15 20 -5 3 -10 1 -10 -6 0 -9 -3 -9 -14 0 -11 10 -16 8 -21 -9z"/>
<path d="M1970 1057 c0 -2 7 -18 15 -33 9 -18 15 -23 15 -12 0 9 2 22 3 30 2
7 2 9 -1 5 -2 -4 -10 -3 -18 4 -8 6 -14 9 -14 6z"/>
<path d="M2107 1054 c-4 -4 -7 -19 -6 -33 0 -14 3 -20 6 -13 4 10 8 10 21 0
13 -11 14 -10 5 7 -6 11 -12 26 -14 33 -3 7 -8 10 -12 6z"/>
<path d="M2205 1050 c-3 -6 1 -13 9 -16 21 -8 20 -21 -1 -27 -14 -4 -12 -5 5
-6 26 -1 31 26 6 36 -13 5 -13 7 -2 14 9 6 9 9 1 9 -6 0 -15 -5 -18 -10z"/>
<path d="M2308 1035 c2 -15 0 -25 -7 -25 -6 0 -11 6 -11 13 0 8 -4 7 -10 -3
-9 -13 -11 -13 -21 0 -9 13 -10 13 -6 0 4 -17 46 -22 65 -8 8 7 12 7 12 -1 0
-13 26 -15 34 -2 3 5 -2 8 -12 7 -9 0 -17 6 -17 14 0 8 8 14 18 14 9 -1 17 2
17 7 0 5 -9 9 -20 9 -11 0 -20 -5 -20 -11 0 -8 -4 -8 -14 0 -11 9 -12 6 -8
-14z"/>
<path d="M1701 1034 c0 -11 3 -14 6 -6 3 7 2 16 -1 19 -3 4 -6 -2 -5 -13z"/>
<path d="M1560 1020 c0 -11 2 -20 4 -20 2 0 6 9 9 20 3 11 1 20 -4 20 -5 0 -9
-9 -9 -20z"/>
<path d="M1720 996 c7 -7 13 -7 20 0 6 6 3 10 -10 10 -13 0 -16 -4 -10 -10z"/>
<path d="M1838 1003 c7 -3 16 -2 19 1 4 3 -2 6 -13 5 -11 0 -14 -3 -6 -6z"/>
<path d="M2158 1003 c6 -2 18 -2 25 0 6 3 1 5 -13 5 -14 0 -19 -2 -12 -5z"/>
<path d="M1507 954 c-11 -11 -8 -52 4 -60 6 -3 18 1 27 10 13 12 14 21 6 33
-12 20 -27 26 -37 17z m30 -38 c-4 -9 -11 -16 -17 -16 -11 0 -14 33 -3 44 11
10 26 -11 20 -28z"/>
<path d="M1565 950 c-4 -6 -4 -14 -1 -17 3 -4 6 -1 6 5 0 15 26 16 33 2 3 -6
4 -5 3 2 -3 17 -32 22 -41 8z"/>
<path d="M1626 951 c-4 -5 3 -7 14 -4 23 6 26 13 6 13 -8 0 -17 -4 -20 -9z"/>
<path d="M1677 953 c-12 -12 -7 -21 16 -26 20 -6 21 -5 4 7 -14 11 -15 15 -5
19 7 3 8 6 2 6 -6 1 -14 -2 -17 -6z"/>
<path d="M1720 945 c0 -10 3 -15 7 -12 3 4 17 -3 30 -15 21 -20 23 -20 23 -3
0 10 -3 15 -7 12 -3 -4 -17 3 -30 15 -21 20 -23 20 -23 3z"/>
<path d="M1786 952 c-2 -4 13 -6 35 -4 21 2 39 6 39 8 0 7 -69 4 -74 -4z"/>
<path d="M1989 928 c-23 -29 -28 -31 -43 -19 -10 9 -16 10 -16 2 0 -20 -19
-11 -23 12 -4 19 -4 19 -6 -5 -1 -24 2 -26 37 -25 20 0 40 5 44 11 4 6 12 5
23 -4 14 -11 19 -11 33 5 16 18 16 18 -1 5 -12 -9 -21 -10 -28 -3 -14 14 1 45
18 39 8 -3 11 -1 8 4 -10 16 -18 12 -46 -22z"/>
<path d="M2073 953 c9 -2 17 -9 17 -15 0 -5 -7 -8 -15 -4 -11 4 -15 -1 -14
-17 0 -12 3 -16 6 -9 7 17 24 15 39 -5 10 -15 10 -11 1 20 -9 27 -17 37 -32
36 -17 -1 -17 -2 -2 -6z"/>
<path d="M2121 942 c-1 -13 3 -21 8 -17 5 3 17 -5 25 -17 9 -12 16 -17 16 -11
0 6 -7 16 -15 23 -12 10 -13 16 -3 29 11 14 11 14 -4 3 -13 -10 -17 -10 -21 0
-3 7 -6 3 -6 -10z"/>
<path d="M1628 923 c7 -3 16 -2 19 1 4 3 -2 6 -13 5 -11 0 -14 -3 -6 -6z"/>
<path d="M1564 908 c2 -7 11 -13 21 -13 10 0 19 6 21 13 1 7 0 8 -3 2 -2 -5
-11 -10 -18 -10 -7 0 -16 5 -18 10 -3 6 -4 5 -3 -2z"/>
<path d="M1686 898 c3 -5 10 -6 15 -3 13 9 11 12 -6 12 -8 0 -12 -4 -9 -9z"/>
<path d="M1638 893 c6 -2 18 -2 25 0 6 3 1 5 -13 5 -14 0 -19 -2 -12 -5z"/>
<path d="M1741 794 c0 -11 3 -14 6 -6 3 7 2 16 -1 19 -3 4 -6 -2 -5 -13z"/>
<path d="M1743 705 c0 -38 2 -53 4 -32 2 20 2 52 0 70 -2 17 -4 1 -4 -38z"/>
<path d="M2283 683 c9 -2 23 -2 30 0 6 3 -1 5 -18 5 -16 0 -22 -2 -12 -5z"/>
<path d="M2358 683 c12 -2 32 -2 45 0 12 2 2 4 -23 4 -25 0 -35 -2 -22 -4z"/>
<path d="M2487 683 c18 -2 50 -2 70 0 21 2 7 4 -32 4 -38 0 -55 -2 -38 -4z"/>
<path d="M2043 673 c9 -2 23 -2 30 0 6 3 -1 5 -18 5 -16 0 -22 -2 -12 -5z"/>
<path d="M2113 673 c9 -2 23 -2 30 0 6 3 -1 5 -18 5 -16 0 -22 -2 -12 -5z"/>
<path d="M1938 663 c7 -3 16 -2 19 1 4 3 -2 6 -13 5 -11 0 -14 -3 -6 -6z"/>
<path d="M1899 643 c-13 -16 -12 -17 4 -4 16 13 21 21 13 21 -2 0 -10 -8 -17
-17z"/>
<path d="M2005 620 c-3 -6 1 -7 9 -4 18 7 21 14 7 14 -6 0 -13 -4 -16 -10z"/>
<path d="M2120 622 c0 -6 10 -8 21 -5 19 5 21 3 17 -21 -4 -18 -2 -24 4 -18
16 16 4 47 -20 50 -12 2 -22 -1 -22 -6z"/>
<path d="M2295 621 c-3 -5 0 -13 6 -17 7 -4 9 -3 5 4 -3 6 2 13 11 15 16 4 16
5 1 6 -9 0 -19 -3 -23 -8z"/>
<path d="M2400 620 c0 -5 5 -10 11 -10 5 0 7 5 4 10 -3 6 -8 10 -11 10 -2 0
-4 -4 -4 -10z"/>
<path d="M2441 609 c0 -13 3 -18 6 -11 4 10 11 8 29 -9 l24 -22 -1 29 c-1 18
-3 22 -6 11 -4 -18 -6 -17 -29 4 l-24 22 1 -24z"/>
<path d="M2055 610 c3 -5 11 -10 16 -10 6 0 7 5 4 10 -3 6 -11 10 -16 10 -6 0
-7 -4 -4 -10z"/>
<path d="M2221 596 c0 -17 2 -18 7 -5 4 9 15 15 25 13 9 -1 17 1 17 6 0 4 -11
8 -25 8 -19 0 -25 -6 -24 -22z"/>
<path d="M1976 585 c4 -8 8 -15 10 -15 2 0 4 7 4 15 0 8 -4 15 -10 15 -5 0 -7
-7 -4 -15z"/>
<path d="M2415 590 c3 -5 8 -10 11 -10 2 0 4 5 4 10 0 6 -5 10 -11 10 -5 0 -7
-4 -4 -10z"/>
<path d="M2652 519 c-1 -47 -6 -90 -12 -97 -5 -7 -3 -6 5 1 13 11 15 31 12 98
l-3 84 -2 -86z"/>
<path d="M1882 565 c0 -16 2 -22 5 -12 2 9 2 23 0 30 -3 6 -5 -1 -5 -18z"/>
<path d="M2308 563 c7 -3 16 -2 19 1 4 3 -2 6 -13 5 -11 0 -14 -3 -6 -6z"/>
<path d="M1590 544 c0 -5 7 -18 15 -28 8 -11 15 -16 15 -10 0 5 -7 18 -15 28
-8 11 -15 16 -15 10z"/>
<path d="M1659 537 c8 -9 16 -15 19 -12 3 3 12 -1 21 -8 14 -11 14 -10 2 6 -8
9 -16 15 -19 12 -3 -3 -12 1 -21 8 -14 11 -14 10 -2 -6z"/>
<path d="M1736 509 c3 -5 14 -9 24 -9 10 0 21 -5 23 -10 3 -6 4 -5 3 2 -1 6
-14 15 -29 19 -16 4 -25 3 -21 -2z"/>
<path d="M1940 500 c0 -11 4 -20 10 -20 5 0 7 6 4 14 -3 8 2 16 13 19 14 4 14
5 -4 6 -17 1 -23 -5 -23 -19z"/>
<path d="M2147 509 c7 -7 15 -10 18 -7 3 3 -2 9 -12 12 -14 6 -15 5 -6 -5z"/>
<path d="M2330 505 c0 -8 8 -15 18 -15 13 0 14 2 3 9 -11 7 -11 9 0 14 10 4 9
6 -3 6 -10 1 -18 -6 -18 -14z"/>
<path d="M2385 509 c-4 -6 -5 -12 -2 -15 2 -3 7 2 10 11 7 17 1 20 -8 4z"/>
<path d="M2526 512 c-3 -5 1 -9 9 -9 8 0 12 4 9 9 -3 4 -7 8 -9 8 -2 0 -6 -4
-9 -8z"/>
<path d="M2570 502 c0 -15 4 -20 16 -15 9 3 12 9 7 12 -4 3 -11 10 -15 15 -5
5 -8 0 -8 -12z"/>
<path d="M1882 419 c-2 -82 1 -99 16 -110 15 -12 16 -12 5 2 -7 8 -14 56 -16
110 l-3 94 -2 -96z"/>
<path d="M2027 495 c-3 -5 8 -10 23 -10 15 0 26 5 23 10 -2 6 -12 11 -23 11
-11 0 -21 -5 -23 -11z"/>
<path d="M2100 500 c0 -5 5 -10 12 -10 6 0 3 -7 -8 -15 -18 -14 -18 -14 4 -8
14 3 22 1 22 -8 0 -7 2 -10 5 -7 8 7 -16 58 -27 58 -4 0 -8 -4 -8 -10z"/>
<path d="M2261 476 l2 -31 4 29 c3 19 7 25 12 17 6 -9 10 -9 19 1 8 10 5 13
-14 14 -21 2 -24 -2 -23 -30z"/>
<path d="M2476 503 c-12 -12 -6 -31 13 -36 14 -3 17 0 14 14 -6 22 -17 31 -27
22z"/>
<path d="M2439 491 c8 -5 10 -14 6 -22 -6 -11 -5 -11 5 -2 14 12 6 33 -13 33
-8 0 -7 -3 2 -9z"/>
<path d="M1601 474 c0 -11 3 -14 6 -6 3 7 2 16 -1 19 -3 4 -6 -2 -5 -13z"/>
<path d="M2191 473 c-1 -16 5 -23 17 -23 10 0 13 3 6 8 -6 4 -14 14 -17 22 -4
10 -6 8 -6 -7z"/>
<path d="M2406 474 c-3 -8 -11 -12 -17 -8 -8 4 -9 3 -5 -5 6 -8 12 -9 20 -2 7
6 16 8 20 4 4 -4 4 0 0 10 -8 21 -10 21 -18 1z"/>
<path d="M2550 471 c0 -8 -7 -11 -17 -6 -15 5 -16 4 -5 -6 9 -10 15 -10 24 -1
6 6 9 15 5 19 -4 3 -7 1 -7 -6z"/>
<path d="M1742 450 c0 -14 2 -19 5 -12 2 6 2 18 0 25 -3 6 -5 1 -5 -13z"/>
<path d="M2588 463 c6 -2 18 -2 25 0 6 3 1 5 -13 5 -14 0 -19 -2 -12 -5z"/>
<path d="M1958 453 c7 -3 16 -2 19 1 4 3 -2 6 -13 5 -11 0 -14 -3 -6 -6z"/>
<path d="M2158 453 c7 -3 16 -2 19 1 4 3 -2 6 -13 5 -11 0 -14 -3 -6 -6z"/>
<path d="M1731 404 c-1 -13 -13 -25 -35 -34 -31 -12 -32 -14 -18 -31 9 -11 21
-19 27 -19 5 0 4 4 -4 9 -15 10 -8 41 9 41 5 0 10 -8 11 -17 0 -13 3 -11 10 7
5 13 8 33 6 45 -4 20 -4 20 -6 -1z"/>
<path d="M1571 363 c-7 -25 -9 -48 -6 -51 3 -3 5 3 5 13 0 13 3 15 13 6 10 -8
14 -7 14 4 0 8 -4 12 -9 9 -4 -3 -8 2 -8 11 0 10 5 13 12 9 6 -4 8 -3 4 4 -3
5 -2 12 3 14 5 1 3 8 -4 15 -10 9 -15 3 -24 -34z"/>
<path d="M2010 400 c0 -5 7 -7 15 -4 8 4 15 8 15 10 0 2 -7 4 -15 4 -8 0 -15
-4 -15 -10z"/>
<path d="M2077 403 c-4 -3 -7 -11 -7 -17 0 -6 5 -4 10 4 7 11 12 12 21 3 17
-17 3 -47 -19 -38 -14 5 -15 4 -4 -6 18 -19 46 11 37 40 -6 21 -25 28 -38 14z"/>
<path d="M2193 403 c9 -2 23 -2 30 0 6 3 -1 5 -18 5 -16 0 -22 -2 -12 -5z"/>
<path d="M2285 375 c0 -19 3 -35 6 -35 4 0 9 16 11 35 2 20 0 35 -7 35 -5 0
-10 -16 -10 -35z"/>
<path d="M2343 403 c9 -2 23 -2 30 0 6 3 -1 5 -18 5 -16 0 -22 -2 -12 -5z"/>
<path d="M2465 398 c-2 -7 -6 -29 -7 -48 -3 -35 -4 -35 -58 -41 l-55 -6 51 -1
c60 -2 74 9 74 60 l0 37 63 4 62 3 -63 2 c-43 1 -64 -2 -67 -10z"/>
<path d="M1966 385 c4 -8 1 -15 -5 -15 -6 0 -11 -5 -11 -11 0 -8 4 -9 13 0 8
6 17 7 22 3 4 -4 2 3 -4 16 -13 25 -23 30 -15 7z"/>
<path d="M2161 376 c-1 -21 -5 -27 -16 -22 -8 3 -15 1 -15 -4 0 -16 30 -12 36
4 3 8 4 23 1 33 -3 11 -5 7 -6 -11z"/>
<path d="M2038 379 c18 -20 15 -32 -8 -26 -11 3 -20 1 -20 -5 0 -5 10 -8 23
-6 25 3 31 39 7 46 -12 4 -13 2 -2 -9z"/>
<path d="M2352 370 c0 -14 2 -19 5 -12 2 6 2 18 0 25 -3 6 -5 1 -5 -13z"/>
<path d="M1747 353 c-4 -3 -2 -12 4 -20 6 -7 9 -22 6 -33 -3 -11 -1 -18 4 -14
12 7 11 41 -1 49 -6 4 -8 11 -5 16 7 10 1 12 -8 2z"/>
<path d="M1982 293 c37 -2 100 -2 140 0 40 1 10 3 -67 3 -77 0 -110 -1 -73 -3z"/>
<path d="M2504 286 c-3 -8 -4 -27 -1 -43 3 -23 4 -22 6 10 1 45 20 50 22 5 1
-24 3 -27 6 -10 4 18 12 22 41 24 l37 1 -35 4 c-19 3 -39 9 -44 14 -14 13 -26
11 -32 -5z"/>
<path d="M1534 249 c-3 -5 -2 -8 3 -7 4 1 28 -8 51 -21 24 -12 45 -21 47 -19
2 2 -19 15 -46 30 -27 14 -52 22 -55 17z"/>
<path d="M2316 243 c-6 -15 -8 -15 -16 -3 -8 12 -10 9 -10 -10 l0 -24 22 22
c12 12 19 24 16 27 -3 3 -9 -2 -12 -12z"/>
<path d="M1712 220 c-1 -20 4 -42 11 -50 6 -8 2 -6 -11 4 -24 21 -24 21 -41
-11 -7 -13 -8 -23 -2 -23 5 0 17 -14 25 -32 13 -25 14 -33 4 -40 -7 -4 -8 -8
-3 -8 6 0 21 10 35 23 14 12 24 21 21 20 -10 -6 -27 42 -17 49 6 4 6 11 -1 20
-6 7 -13 29 -16 48 l-4 35 -1 -35z"/>
<path d="M2105 215 c-22 -7 -35 -13 -30 -14 6 -1 4 -5 -4 -10 -17 -11 -27 -61
-12 -61 5 0 11 5 13 11 2 5 10 11 18 12 8 2 20 6 26 9 18 11 108 16 132 7 18
-7 22 -15 20 -41 -1 -18 -6 -40 -12 -48 -10 -13 -9 -13 7 -1 11 9 17 27 17 56
0 74 -79 110 -175 80z"/>
<path d="M1520 212 c0 -4 9 -8 19 -8 11 0 17 4 15 8 -7 10 -34 10 -34 0z"/>
<path d="M1798 194 c-16 -8 -28 -21 -28 -29 0 -8 -4 -15 -10 -15 -5 0 -10 -8
-10 -17 0 -15 2 -16 10 -3 9 13 10 13 10 0 1 -12 3 -12 14 3 15 19 31 24 20 5
-4 -6 1 -17 11 -25 11 -7 14 -13 9 -13 -6 0 -11 -7 -11 -15 0 -22 14 -18 20 5
3 12 -1 24 -11 30 -10 5 -12 10 -5 10 16 0 25 33 16 58 -7 19 -10 19 -35 6z"/>
<path d="M1501 154 c0 -11 3 -14 6 -6 3 7 2 16 -1 19 -3 4 -6 -2 -5 -13z"/>
<path d="M2180 160 c0 -6 7 -10 15 -10 8 0 15 2 15 4 0 2 -7 6 -15 10 -8 3
-15 1 -15 -4z"/>
<path d="M2071 103 c13 -15 31 -14 30 2 0 6 -10 11 -21 11 -16 1 -18 -1 -9
-13z"/>
<path d="M1482 60 c0 -19 2 -27 5 -17 2 9 2 25 0 35 -3 9 -5 1 -5 -18z"/>
<path d="M1762 68 c-19 -11 -48 -24 -65 -29 -30 -7 -29 -7 10 -6 24 1 43 5 43
10 0 4 6 7 14 7 14 0 42 27 35 35 -3 2 -19 -6 -37 -17z"/>
<path d="M1663 68 c-15 -20 -25 -38 -20 -38 3 0 12 11 21 25 17 26 16 35 -1
13z"/>
<path d="M2218 73 c7 -3 16 -2 19 1 4 3 -2 6 -13 5 -11 0 -14 -3 -6 -6z"/>
<path d="M2071 44 c0 -11 3 -14 6 -6 3 7 2 16 -1 19 -3 4 -6 -2 -5 -13z"/>
<path d="M2776 1199 c-8 -41 -8 -739 1 -996 l6 -203 649 0 648 0 0 615 0 615
-649 0 -648 0 -7 -31z m1292 -466 c3 -458 2 -483 -15 -484 -15 0 -15 -2 -3 -7
9 -4 15 -13 14 -19 -1 -7 -2 -57 -3 -112 -1 -96 -2 -98 -23 -96 -13 1 -44 3
-70 4 -42 1 -48 4 -49 24 l-2 22 -4 -22 c-7 -36 -21 -27 -26 15 l-4 37 -1 -42
-2 -43 -103 0 c-91 0 -104 2 -117 20 -8 11 -17 15 -20 10 -12 -19 -102 -27
-345 -29 -195 -2 -250 1 -256 11 -6 9 -9 9 -9 1 0 -8 -37 -11 -121 -12 l-120
-2 0 123 c0 68 -1 316 -3 553 -2 237 -1 454 1 483 l5 52 636 -2 637 -3 3 -482z"/>
<path d="M3201 1184 c0 -11 3 -14 6 -6 3 7 2 16 -1 19 -3 4 -6 -2 -5 -13z"/>
<path d="M3410 1161 c0 -44 6 -52 34 -41 18 6 18 7 -4 13 -24 6 -24 7 -5 21
20 15 20 15 0 16 -18 1 -17 2 5 15 l25 14 -27 1 c-26 0 -28 -3 -28 -39z"/>
<path d="M3520 1180 c0 -22 -1 -23 -20 -5 -25 23 -28 19 -19 -25 5 -26 7 -28
8 -11 l1 24 26 -24 26 -24 -7 40 c-9 47 -15 58 -15 25z"/>
<path d="M3550 1166 c0 -44 16 -54 43 -27 12 12 16 21 9 21 -6 0 -12 -4 -12
-10 0 -5 -7 -10 -15 -10 -8 0 -15 8 -15 18 0 26 11 34 28 19 13 -10 14 -9 10
3 -2 8 -14 16 -26 18 -19 3 -22 -1 -22 -32z"/>
<path d="M3696 1192 c-9 -8 -7 -70 2 -75 4 -3 16 -1 27 4 19 7 19 8 -2 8 -27
1 -31 18 -5 24 16 4 16 5 0 6 -26 2 -22 19 5 23 l22 3 -22 7 c-12 3 -24 3 -27
0z"/>
<path d="M2994 1175 c-25 -18 -15 -25 14 -9 13 6 20 14 14 18 -5 3 -18 -1 -28
-9z"/>
<path d="M3056 1154 c-4 -20 -5 -39 -2 -42 3 -3 6 0 6 6 0 7 9 12 20 12 11 0
20 -4 20 -10 0 -5 5 -10 11 -10 11 0 -18 55 -37 71 -8 7 -14 -1 -18 -27z"/>
<path d="M3131 1154 c0 -28 2 -34 8 -20 7 19 8 18 23 -3 17 -25 27 -18 24 16
-3 29 -16 43 -16 17 -1 -17 -2 -17 -20 5 l-20 23 1 -38z"/>
<path d="M3220 1180 c0 -5 5 -9 12 -7 7 1 15 -11 19 -28 l7 -30 1 32 c0 17 7
34 14 36 6 3 -3 6 -20 6 -18 1 -33 -3 -33 -9z"/>
<path d="M3354 1179 c-4 -7 4 -20 17 -31 l24 -20 -22 5 c-24 5 -32 -8 -10 -16
37 -13 50 25 15 44 -22 12 -22 12 -3 20 16 6 17 8 3 8 -9 1 -20 -4 -24 -10z"/>
<path d="M3827 1183 c-4 -6 -16 -9 -27 -6 -18 5 -20 1 -19 -33 2 -28 3 -32 6
-13 3 20 10 27 29 27 13 0 24 -6 24 -13 0 -20 27 -39 33 -23 3 10 8 11 26 1
24 -15 75 -18 52 -4 -9 6 -12 20 -9 40 4 25 1 31 -14 31 -10 0 -18 -4 -18 -10
0 -5 5 -10 10 -10 6 0 10 -11 10 -25 0 -14 -4 -25 -10 -25 -5 0 -10 6 -10 14
0 8 -9 24 -20 37 l-19 24 -1 -26 c0 -40 -13 -44 -25 -8 -7 19 -14 28 -18 22z"/>
<path d="M2856 1171 c-16 -6 -17 -9 -4 -13 17 -7 32 -48 17 -48 -5 0 -9 -4 -9
-9 0 -4 11 -6 25 -3 29 5 33 17 9 26 -11 4 -14 13 -10 31 7 26 3 28 -28 16z"/>
<path d="M3978 1144 c4 -35 15 -41 42 -24 12 8 11 10 -7 10 -16 0 -23 6 -23
19 0 11 -4 22 -8 25 -4 2 -6 -11 -4 -30z"/>
<path d="M2982 1130 c6 -20 37 -25 52 -9 8 9 7 10 -8 5 -10 -3 -25 -1 -34 6
-13 11 -14 10 -10 -2z"/>
<path d="M3765 1069 c-4 -6 -5 -12 -2 -15 2 -3 7 2 10 11 7 17 1 20 -8 4z"/>
<path d="M3810 1071 c-24 -7 -24 -7 -4 -13 15 -4 23 -17 28 -43 4 -20 10 -35
12 -32 3 3 1 21 -4 41 -9 32 -8 36 9 36 10 0 19 5 19 10 0 11 -23 12 -60 1z"/>
<path d="M3540 1056 c-20 -26 -8 -61 23 -64 15 -2 27 1 27 6 0 6 -9 8 -20 5
-13 -3 -22 1 -26 11 -8 20 15 49 33 42 7 -3 13 -1 13 4 0 15 -36 12 -50 -4z"/>
<path d="M3610 1046 c-10 -27 -13 -73 -3 -48 7 17 23 15 45 -5 18 -16 18 -16
0 25 -25 56 -30 59 -42 28z m17 -18 c-3 -8 -6 -5 -6 6 -1 11 2 17 5 13 3 -3 4
-12 1 -19z"/>
<path d="M3672 1033 c13 -49 22 -58 13 -13 l-7 35 37 -35 38 -35 -7 35 c-3 19
-11 39 -17 45 -7 7 -7 1 1 -19 l10 -28 -31 26 c-41 35 -49 33 -37 -11z"/>
<path d="M3273 1053 c-14 -5 -17 -41 -7 -67 7 -17 64 -23 64 -6 0 5 -7 7 -15
4 -8 -4 -23 -3 -32 0 -15 6 -15 8 -3 17 11 8 12 12 3 16 -20 8 -15 23 7 23 11
0 20 5 20 10 0 10 -16 12 -37 3z"/>
<path d="M3409 1051 c9 -6 12 -21 9 -45 -4 -37 1 -41 37 -26 19 8 19 9 -2 9
-19 1 -23 7 -23 30 0 16 6 32 13 34 6 3 -1 6 -18 6 -21 0 -26 -2 -16 -8z"/>
<path d="M3162 1020 c2 -25 -1 -35 -14 -38 -12 -2 -18 5 -21 30 l-4 33 -1 -31
c-1 -18 5 -37 14 -45 29 -24 57 35 34 71 -8 11 -9 6 -8 -20z"/>
<path d="M3197 1043 c-14 -14 -6 -32 16 -35 12 -2 21 -7 19 -13 -2 -5 -12 -9
-23 -8 -11 2 -17 -1 -14 -7 10 -16 42 -12 49 6 8 22 -1 34 -27 34 -22 1 -22 1
-3 15 15 12 16 15 5 15 -9 0 -19 -3 -22 -7z"/>
<path d="M2856 1032 c-3 -5 -3 -25 1 -45 6 -40 30 -50 54 -21 10 13 10 20 -3
42 -17 28 -42 40 -52 24z m27 -27 c-3 -10 0 -15 8 -13 8 2 14 -4 14 -12 0 -8
-8 -16 -17 -18 -11 -2 -18 3 -18 11 0 9 -3 22 -6 31 -4 10 -1 16 10 16 10 0
13 -6 9 -15z"/>
<path d="M2930 1015 c0 -25 14 -33 25 -15 3 6 1 10 -4 10 -18 0 -12 18 7 23
13 4 11 5 -5 6 -18 1 -23 -4 -23 -24z"/>
<path d="M3000 1025 c-25 -30 15 -85 42 -56 11 11 9 12 -10 6 -33 -10 -42 23
-13 47 16 12 19 18 8 18 -8 0 -20 -7 -27 -15z"/>
<path d="M3066 1024 c-3 -9 -6 -25 -5 -37 0 -12 3 -16 6 -9 6 15 33 16 33 0 0
-6 3 -8 6 -5 8 8 -15 67 -26 67 -4 0 -11 -7 -14 -16z m24 -14 c0 -5 -4 -10
-10 -10 -5 0 -10 5 -10 10 0 6 5 10 10 10 6 0 10 -4 10 -10z"/>
<path d="M2940 964 c0 -15 6 -16 35 -5 17 7 17 8 -8 13 -19 4 -27 1 -27 -8z"/>
<path d="M3880 951 c0 -18 18 -21 30 -6 10 13 9 15 -9 15 -11 0 -21 -4 -21 -9z"/>
<path d="M3941 920 c1 -38 2 -41 8 -15 l6 30 22 -35 c14 -22 23 -29 23 -18 0
9 3 23 6 32 3 9 1 16 -6 16 -6 0 -8 -4 -5 -10 13 -20 -7 -9 -30 18 l-24 27 0
-45z"/>
<path d="M3640 940 c-20 -5 -22 -7 -8 -12 9 -4 19 -17 21 -30 3 -17 4 -16 2 4
-1 15 3 29 9 31 21 8 1 14 -24 7z"/>
<path d="M3693 943 c-10 -3 -10 -10 -2 -24 5 -11 7 -29 3 -41 -5 -17 -3 -20
11 -15 9 4 20 7 23 7 4 0 2 4 -4 8 -16 10 -28 52 -15 52 6 0 11 5 11 10 0 11
-7 12 -27 3z"/>
<path d="M3740 924 c0 -16 5 -36 10 -44 8 -11 9 -7 4 15 l-6 30 26 -30 25 -30
1 37 c0 20 -4 39 -9 42 -5 4 -7 -4 -4 -16 l6 -23 -27 24 -26 24 0 -29z"/>
<path d="M3822 915 c0 -22 2 -32 5 -22 5 18 6 18 24 1 10 -9 19 -12 19 -6 0 6
-5 14 -11 18 -6 3 -8 15 -6 26 4 15 3 17 -8 8 -10 -8 -14 -7 -18 2 -3 7 -5 -5
-5 -27z"/>
<path d="M3433 933 c-23 -9 -14 -20 12 -15 14 2 25 8 25 13 0 10 -17 11 -37 2z"/>
<path d="M3570 921 c0 -13 8 -21 23 -23 30 -4 22 -23 -9 -21 -13 1 -22 -2 -19
-8 9 -13 52 -11 57 4 8 20 -2 37 -23 37 -24 0 -25 17 -1 23 13 4 11 5 -5 6
-16 1 -23 -5 -23 -18z"/>
<path d="M3292 921 c-11 -7 -11 -9 1 -14 9 -3 17 -16 20 -29 4 -21 4 -21 3 2
-1 14 6 30 14 37 13 11 12 12 -5 13 -11 0 -26 -4 -33 -9z"/>
<path d="M3351 898 c0 -20 3 -40 9 -43 6 -3 7 1 4 9 -4 11 0 16 14 16 11 0 23
-8 25 -17 4 -15 5 -14 5 2 0 11 -4 31 -8 45 -8 24 -8 24 -9 3 -1 -13 -7 -23
-15 -23 -8 0 -17 10 -19 23 -3 14 -5 8 -6 -15z"/>
<path d="M3217 899 c6 -23 6 -23 -14 -6 -28 24 -33 22 -32 -15 1 -26 3 -28 6
-9 l5 23 30 -28 30 -29 -7 35 c-4 19 -11 39 -15 44 -5 5 -6 -2 -3 -15z"/>
<path d="M3893 895 c-10 -22 -9 -25 7 -25 11 0 22 5 25 10 3 6 2 10 -4 10 -5
0 -11 7 -13 15 -2 10 -7 7 -15 -10z"/>
<path d="M2990 900 c-16 -5 -19 -8 -8 -9 10 -1 22 -14 28 -33 10 -32 10 -33 6
-3 -3 19 2 34 12 42 14 10 14 12 2 12 -8 -1 -26 -5 -40 -9z"/>
<path d="M3097 889 c-13 -49 31 -77 57 -36 14 22 -2 51 -31 55 -14 2 -22 -4
-26 -19z m51 -18 c-5 -24 -38 -27 -38 -3 0 10 3 21 6 25 11 11 35 -5 32 -22z"/>
<path d="M2926 863 c4 -21 9 -41 11 -45 6 -12 31 -9 39 4 5 8 0 9 -14 6 -24
-7 -30 10 -10 30 9 9 8 12 -7 12 -20 1 -20 1 -1 15 19 15 19 15 -3 15 -20 0
-21 -3 -15 -37z"/>
<path d="M3430 870 c0 -32 3 -34 35 -20 19 8 19 9 -2 9 -24 1 -32 26 -10 34 7
3 5 6 -5 6 -13 1 -18 -7 -18 -29z"/>
<path d="M2864 882 c-18 -12 -24 -42 -14 -63 14 -25 46 -25 60 0 14 28 13 31
-12 30 -20 0 -21 -1 -5 -8 17 -6 17 -8 3 -20 -12 -10 -19 -11 -30 -2 -24 20
-6 57 27 52 4 0 7 4 7 9 0 12 -20 13 -36 2z"/>
<path d="M3410 806 c0 -14 4 -27 8 -30 5 -3 6 8 4 25 -5 35 -12 38 -12 5z"/>
<path d="M3483 795 c0 -22 2 -30 4 -17 2 12 2 30 0 40 -3 9 -5 -1 -4 -23z"/>
<path d="M3340 795 c-11 -13 -15 -13 -21 -3 -5 8 -8 -5 -7 -32 0 -25 3 -35 5
-22 5 27 19 28 35 2 7 -11 17 -20 21 -20 5 0 -1 13 -11 28 -15 20 -18 32 -11
45 12 21 6 22 -11 2z"/>
<path d="M3235 783 c2 -10 4 -29 4 -43 1 -19 3 -22 10 -11 8 12 12 12 25 2 10
-8 16 -9 16 -3 0 6 -4 13 -9 16 -4 3 -6 17 -3 31 4 21 1 25 -21 25 -19 0 -24
-5 -22 -17z m35 -8 c0 -8 -4 -15 -10 -15 -5 0 -10 7 -10 15 0 8 5 15 10 15 6
0 10 -7 10 -15z"/>
<path d="M3452 780 c0 -14 2 -19 5 -12 2 6 2 18 0 25 -3 6 -5 1 -5 -13z"/>
<path d="M3023 782 c-22 -3 -33 -22 -13 -22 5 0 14 -15 20 -32 l10 -33 -5 37
c-4 24 -1 38 7 41 20 7 6 13 -19 9z"/>
<path d="M3121 785 c1 -19 18 -51 18 -35 0 8 -4 22 -9 30 -5 8 -9 11 -9 5z"/>
<path d="M3167 783 c-4 -3 -7 -19 -7 -34 0 -38 31 -55 54 -30 24 26 12 71 -18
71 -13 0 -26 -3 -29 -7z m48 -23 c8 -24 -1 -40 -21 -40 -17 0 -28 24 -20 45 8
22 34 18 41 -5z"/>
<path d="M3065 760 c-11 -36 2 -56 39 -57 23 -1 37 4 41 14 5 13 3 14 -10 3
-14 -11 -17 -10 -22 10 -6 22 -7 22 -20 5 -14 -20 -18 -12 -14 28 3 23 -6 22
-14 -3z"/>
<path d="M2930 748 c0 -43 12 -68 31 -68 11 0 19 5 19 11 0 6 -6 9 -14 6 -21
-8 -26 15 -7 31 14 12 14 13 -1 8 -10 -3 -18 -1 -18 4 0 5 8 14 18 19 15 9 15
10 -5 11 -17 0 -23 -6 -23 -22z"/>
<path d="M2905 731 l5 -34 -27 29 c-27 28 -28 29 -31 7 -2 -12 2 -30 8 -40 9
-15 10 -13 5 12 l-5 30 30 -35 c29 -34 29 -34 29 -10 -1 14 -5 36 -10 50 -7
21 -8 20 -4 -9z"/>
<path d="M3448 613 c17 -2 47 -2 65 0 17 2 3 4 -33 4 -36 0 -50 -2 -32 -4z"/>
<path d="M3309 583 c-13 -16 -12 -17 4 -4 16 13 21 21 13 21 -2 0 -10 -8 -17
-17z"/>
<path d="M3006 582 c-7 -12 5 -16 33 -13 7 2 10 -2 6 -8 -3 -7 0 -8 9 -5 9 3
16 10 16 16 0 5 -4 6 -10 3 -5 -3 -10 -1 -10 6 0 9 -3 9 -14 0 -11 -9 -15 -9
-18 1 -3 9 -6 9 -12 0z"/>
<path d="M3428 573 c7 -3 16 -2 19 1 4 3 -2 6 -13 5 -11 0 -14 -3 -6 -6z"/>
<path d="M3472 548 c2 -23 8 -33 21 -34 12 -1 13 -1 2 3 -21 6 -19 50 3 56 12
3 11 5 -6 6 -20 1 -23 -3 -20 -31z"/>
<path d="M3537 573 c9 -3 9 -11 -3 -31 l-16 -27 21 25 c25 31 26 40 4 39 -11
0 -13 -3 -6 -6z"/>
<path d="M3686 564 c-9 -23 -7 -44 4 -44 5 0 7 7 4 15 -4 8 -1 22 6 30 7 9 8
15 2 15 -5 0 -13 -7 -16 -16z"/>
<path d="M3820 570 c0 -5 7 -7 15 -4 8 4 15 8 15 10 0 2 -7 4 -15 4 -8 0 -15
-4 -15 -10z"/>
<path d="M3880 551 c0 -17 4 -32 9 -35 4 -3 6 6 3 20 -3 16 1 30 9 35 11 7 10
9 -3 9 -13 0 -18 -8 -18 -29z"/>
<path d="M3356 554 c-5 -14 -4 -15 9 -4 17 14 19 20 6 20 -5 0 -12 -7 -15 -16z"/>
<path d="M3637 553 c3 -7 6 -13 8 -13 1 0 7 6 13 13 8 10 6 13 -7 13 -11 0
-17 -6 -14 -13z"/>
<path d="M3742 545 c0 -16 2 -22 5 -12 2 9 2 23 0 30 -3 6 -5 -1 -5 -18z"/>
<path d="M3422 540 c0 -14 2 -19 5 -12 2 6 2 18 0 25 -3 6 -5 1 -5 -13z"/>
<path d="M3717 541 c-4 -17 -3 -21 5 -13 5 5 8 16 6 23 -3 8 -7 3 -11 -10z"/>
<path d="M3115 541 c-3 -5 0 -13 6 -17 7 -4 9 -3 5 4 -3 5 0 13 6 15 9 4 10 6
1 6 -6 1 -14 -3 -18 -8z"/>
<path d="M3820 533 c0 -14 2 -15 9 -4 5 8 14 10 21 6 9 -5 11 -4 6 3 -11 18
-36 14 -36 -5z"/>
<path d="M2964 528 c-4 -7 -14 -24 -22 -38 -14 -24 -13 -24 3 -5 20 24 37 55
31 55 -3 0 -8 -6 -12 -12z"/>
<path d="M3386 528 c5 -8 0 -9 -14 -6 -12 4 -20 2 -16 -3 9 -15 44 -10 44 6 0
8 -5 15 -11 15 -5 0 -7 -5 -3 -12z"/>
<path d="M4003 475 c0 -38 2 -53 4 -32 2 20 2 52 0 70 -2 17 -4 1 -4 -38z"/>
<path d="M3135 510 c-3 -6 1 -7 9 -4 18 7 21 14 7 14 -6 0 -13 -4 -16 -10z"/>
<path d="M3090 469 c-12 -23 -20 -43 -18 -45 3 -2 14 17 26 41 27 56 20 60 -8
4z"/>
<path d="M3291 464 c0 -11 3 -14 6 -6 3 7 2 16 -1 19 -3 4 -6 -2 -5 -13z"/>
<path d="M3451 457 c-15 -15 -14 -32 4 -47 13 -10 18 -11 28 -1 9 10 8 11 -5
6 -19 -8 -35 16 -23 35 5 8 11 8 21 -1 8 -7 14 -7 14 -1 0 15 -26 22 -39 9z"/>
<path d="M3500 451 c0 -14 6 -21 19 -21 24 0 22 34 -2 38 -12 2 -17 -3 -17
-17z m30 5 c0 -3 -4 -8 -10 -11 -5 -3 -10 -1 -10 4 0 6 5 11 10 11 6 0 10 -2
10 -4z"/>
<path d="M3558 463 c6 -2 18 -2 25 0 6 3 1 5 -13 5 -14 0 -19 -2 -12 -5z"/>
<path d="M3711 438 c0 -18 3 -26 6 -18 3 8 11 18 17 22 7 5 6 8 -4 8 -13 0
-13 1 0 10 13 8 12 10 -2 10 -14 0 -18 -8 -17 -32z"/>
<path d="M3765 461 c-3 -6 4 -15 15 -21 13 -7 20 -7 20 0 0 5 -7 10 -16 10 -8
0 -12 5 -9 10 3 6 4 10 1 10 -3 0 -7 -4 -11 -9z"/>
<path d="M3817 463 c-10 -9 -9 -23 1 -23 5 0 9 7 9 15 0 17 -1 18 -10 8z"/>
<path d="M2907 442 c-24 -27 -21 -36 4 -11 11 11 19 23 16 25 -2 2 -11 -4 -20
-14z"/>
<path d="M3420 439 c0 -15 -5 -19 -17 -15 -10 3 -25 1 -33 -4 -11 -7 -5 -10
23 -10 33 0 37 3 37 25 0 14 -2 25 -5 25 -3 0 -5 -9 -5 -21z"/>
<path d="M3602 435 c0 -16 2 -24 5 -17 2 6 11 12 18 12 7 0 16 -6 18 -12 3 -8
6 -6 6 5 1 10 -6 17 -18 17 -11 0 -22 6 -24 13 -3 6 -5 -1 -5 -18z"/>
<path d="M3661 428 c-1 -23 3 -28 22 -27 15 1 17 3 5 6 -9 2 -19 14 -21 26 -4
18 -5 17 -6 -5z"/>
<path d="M3571 424 c0 -11 3 -14 6 -6 3 7 2 16 -1 19 -3 4 -6 -2 -5 -13z"/>
<path d="M3009 393 c-12 -16 -12 -17 2 -6 9 7 19 10 23 6 3 -4 15 -8 26 -10
14 -2 18 2 13 12 -4 11 -9 12 -17 5 -8 -6 -16 -6 -23 1 -7 7 -14 4 -24 -8z"/>
<path d="M2870 378 c-10 -21 -10 -21 3 -6 8 10 18 14 22 10 5 -4 5 -1 1 6 -10
17 -14 15 -26 -10z"/>
<path d="M3980 390 c-9 -6 -10 -10 -3 -10 6 0 15 5 18 10 8 12 4 12 -15 0z"/>
<path d="M3783 373 c31 -2 83 -2 115 0 31 2 5 3 -58 3 -63 0 -89 -1 -57 -3z"/>
<path d="M3033 357 c-3 -6 -1 -7 5 -3 13 8 26 -29 16 -45 -3 -6 -17 -9 -29 -7
-16 3 -22 1 -18 -8 5 -13 27 -9 50 8 16 13 12 65 -5 65 -7 0 -16 -5 -19 -10z"/>
<path d="M3473 363 c9 -2 25 -2 35 0 9 3 1 5 -18 5 -19 0 -27 -2 -17 -5z"/>
<path d="M3590 360 c0 -5 7 -7 15 -4 8 4 15 8 15 10 0 2 -7 4 -15 4 -8 0 -15
-4 -15 -10z"/>
<path d="M2843 338 c-7 -9 0 -21 26 -43 l36 -29 -29 31 c-15 17 -25 36 -22 42
10 15 1 14 -11 -1z"/>
<path d="M3581 324 c0 -11 3 -14 6 -6 3 7 2 16 -1 19 -3 4 -6 -2 -5 -13z"/>
<path d="M2817 297 c-3 -8 1 -14 8 -14 7 0 11 6 8 14 -6 16 -10 16 -16 0z"/>
<path d="M3567 293 c-4 -3 -7 -13 -7 -22 1 -13 3 -13 11 2 11 19 8 33 -4 20z"/>
<path d="M2850 276 c0 -2 8 -10 18 -17 15 -13 16 -12 3 4 -13 16 -21 21 -21
13z"/>
<path d="M3893 235 c0 -27 2 -38 4 -22 2 15 2 37 0 50 -2 12 -4 0 -4 -28z"/>
<path d="M3918 253 c5 -24 6 -25 12 -8 8 21 4 35 -9 35 -5 0 -6 -12 -3 -27z"/>
<path d="M2996 255 c-9 -26 -7 -32 5 -12 6 10 9 21 6 23 -2 3 -7 -2 -11 -11z"/>
<path d="M3978 253 c12 -2 30 -2 40 0 9 3 -1 5 -23 4 -22 0 -30 -2 -17 -4z"/>
<path d="M2918 217 c36 -43 46 -101 15 -91 -14 5 -15 4 -4 -4 24 -17 56 2 53
32 -1 14 2 26 8 26 5 0 10 -10 11 -22 1 -22 1 -22 7 -2 6 19 10 20 36 9 20 -8
25 -14 15 -18 -8 -3 -9 -6 -2 -6 21 -2 25 20 7 35 -18 13 -18 14 1 8 16 -5 17
-4 5 4 -8 7 -19 7 -25 2 -13 -11 -55 -2 -55 12 0 5 5 6 10 3 6 -3 10 -4 10 -2
0 3 -17 15 -37 27 -23 13 -32 16 -24 6 26 -31 0 -38 -32 -9 l-31 28 32 -38z"/>
<path d="M3481 242 c-25 -3 -31 -6 -20 -12 10 -7 7 -11 -17 -16 -26 -5 -30
-11 -32 -40 -2 -19 2 -34 7 -34 6 0 9 -6 7 -12 -1 -7 -1 -10 1 -5 3 4 9 4 15
1 5 -4 5 4 -2 16 -11 21 -10 22 9 17 14 -3 22 1 26 13 6 20 80 34 123 23 24
-6 25 -4 14 10 -18 22 -90 43 -131 39z"/>
<path d="M3076 213 c-6 -14 -5 -15 5 -6 7 7 10 15 7 18 -3 3 -9 -2 -12 -12z"/>
<path d="M2906 179 c16 -20 31 -34 33 -32 3 2 -10 18 -29 36 l-34 32 30 -36z"/>
<path d="M3100 200 c-9 -6 -11 -10 -3 -10 7 0 19 -12 27 -27 8 -16 15 -23 16
-18 0 6 -7 20 -15 32 -12 16 -12 22 -2 26 6 3 8 6 2 6 -5 0 -17 -4 -25 -9z"/>
<path d="M3917 196 c-4 -10 -7 -30 -6 -44 1 -25 1 -25 10 6 11 37 7 67 -4 38z"/>
<path d="M3583 173 c9 -2 15 -8 13 -12 -3 -4 3 -12 13 -18 17 -11 17 -9 7 13
-7 14 -19 23 -31 23 -17 -1 -17 -2 -2 -6z"/>
<path d="M3111 134 c0 -11 3 -14 6 -6 3 7 2 16 -1 19 -3 4 -6 -2 -5 -13z"/>
<path d="M3027 116 c-71 -30 -70 -28 -54 -50 16 -22 102 -32 123 -16 7 7 18 9
23 6 12 -8 34 30 26 44 -8 14 -28 12 -58 -3 -15 -8 -41 -11 -59 -9 l-33 5 30
13 c17 6 32 9 35 5 3 -4 13 1 23 11 22 23 14 22 -56 -6z"/>
<path d="M2847 100 c17 -18 25 -21 36 -12 8 7 17 9 20 5 4 -3 7 -1 7 5 0 15
-13 15 -28 0 -9 -9 -17 -7 -34 7 l-23 19 22 -24z"/>
<path d="M3443 70 c0 -25 2 -35 4 -22 2 12 2 32 0 45 -2 12 -4 2 -4 -23z"/>
<path d="M3617 104 c-3 -5 1 -15 9 -22 16 -14 18 -5 5 17 -5 7 -11 9 -14 5z"/>
<path d="M3599 67 c6 -14 7 -28 3 -33 -4 -4 -2 -4 5 -1 12 7 7 44 -8 53 -5 3
-5 -6 0 -19z"/>
<path d="M1355 1170 c-3 -5 -1 -10 4 -10 6 0 11 5 11 10 0 6 -2 10 -4 10 -3 0
-8 -4 -11 -10z"/>
<path d="M2730 1170 c-9 -6 -10 -10 -3 -10 6 0 15 5 18 10 8 12 4 12 -15 0z"/>
<path d="M2727 927 c-3 -8 0 -14 7 -14 7 0 13 6 13 14 0 7 -4 13 -8 13 -4 0
-9 -6 -12 -13z"/>
<path d="M1349 862 c11 -8 11 -10 0 -15 -10 -4 -8 -6 4 -6 21 -1 18 21 -4 27
-12 3 -12 2 0 -6z"/>
<path d="M1348 773 c7 -3 16 -2 19 1 4 3 -2 6 -13 5 -11 0 -14 -3 -6 -6z"/>
<path d="M1340 580 c0 -5 5 -10 10 -10 6 0 10 5 10 10 0 6 -4 10 -10 10 -5 0
-10 -4 -10 -10z"/>
<path d="M2730 554 c0 -8 5 -12 10 -9 6 4 8 11 5 16 -9 14 -15 11 -15 -7z"/>
<path d="M1350 370 c0 -5 5 -10 11 -10 5 0 7 5 4 10 -3 6 -8 10 -11 10 -2 0
-4 -4 -4 -10z"/>
<path d="M2725 280 c3 -5 11 -10 16 -10 6 0 7 5 4 10 -3 6 -11 10 -16 10 -6 0
-7 -4 -4 -10z"/>
<path d="M2725 250 c-3 -5 -1 -10 4 -10 6 0 11 5 11 10 0 6 -2 10 -4 10 -3 0
-8 -4 -11 -10z"/>
<path d="M1367 223 c-10 -9 -9 -23 1 -23 5 0 9 7 9 15 0 17 -1 18 -10 8z"/>
<path d="M1359 167 c-1 -1 -2 -16 -4 -33 -2 -30 -2 -31 16 -16 22 19 23 23 8
20 -6 -2 -14 3 -16 10 -3 8 1 10 11 6 9 -3 16 -4 16 -1 0 5 -29 18 -31 14z"/>
</g>
</svg>
